<svg width="591" height="466" viewBox="0 0 591 466" fill="none" xmlns="http://www.w3.org/2000/svg">
<path d="M591 249.738C591 87.6306 497.467 28 394 28C329.257 28 259.28 28 194.537 28C73.5232 28 10.2862 74.8213 0 181.099H143.233C149.889 164.955 157.755 156.193 211.606 156.193C262.432 156.193 298.131 156.193 348.957 156.193C394.943 156.193 426.012 183.052 426.012 244.262C426.012 306.146 394.943 343.188 348.957 343.188C298.131 343.188 284.215 343.188 233.389 343.188C211.606 343.188 170.461 335.116 153.519 308.21H258.425V211.35H0V466H105.425V406C125.392 440.977 180.297 466 246.25 466C310.993 466 329.257 466 394 466C497.467 466 591 419.243 591 249.738Z" fill="#F0EEE8"/>
<path d="M563.571 55C558.571 55 553.952 53.7603 549.714 51.2809C545.524 48.8015 542.19 45.4638 539.714 41.2679C537.238 37.0243 536 32.3992 536 27.3927C536 22.4339 537.214 17.8565 539.643 13.6606C542.119 9.46467 545.452 6.15084 549.643 3.71911C553.881 1.2397 558.524 0 563.571 0C568.524 0 573.095 1.2397 577.286 3.71911C581.476 6.15084 584.81 9.46467 587.286 13.6606C589.762 17.8088 591 22.3862 591 27.3927C591 32.3992 589.762 37.0243 587.286 41.2679C584.857 45.4638 581.548 48.8015 577.357 51.2809C573.167 53.7603 568.571 55 563.571 55ZM543.143 27.3927C543.143 31.1595 544.048 34.6164 545.857 37.7633C547.667 40.8626 550.119 43.3182 553.214 45.13C556.357 46.9419 559.81 47.8479 563.571 47.8479C567.238 47.8479 570.619 46.9419 573.714 45.13C576.857 43.3182 579.333 40.8626 581.143 37.7633C582.952 34.6164 583.857 31.1595 583.857 27.3927C583.857 23.6736 582.929 20.2644 581.071 17.1651C579.262 14.0659 576.81 11.6103 573.714 9.79844C570.619 7.98656 567.238 7.08062 563.571 7.08062C559.81 7.08062 556.357 7.98656 553.214 9.79844C550.119 11.6103 547.667 14.0897 545.857 17.2367C544.048 20.3359 543.143 23.7213 543.143 27.3927ZM548.857 27.4642C548.857 24.6034 549.5 22.0524 550.786 19.8114C552.119 17.5228 553.929 15.7347 556.214 14.4473C558.5 13.1599 561.048 12.5163 563.857 12.5163C567 12.5163 569.738 13.2792 572.071 14.8049C574.405 16.283 575.952 18.2141 576.714 20.5982L569.643 23.2445C569.214 22.1478 568.476 21.2657 567.429 20.5982C566.429 19.883 565.238 19.5254 563.857 19.5254C561.714 19.5254 559.976 20.2644 558.643 21.7425C557.357 23.2206 556.714 25.1279 556.714 27.4642C556.714 29.8483 557.357 31.7794 558.643 33.2575C559.976 34.7356 561.714 35.4746 563.857 35.4746C565.19 35.4746 566.381 35.1409 567.429 34.4733C568.476 33.7581 569.214 32.8522 569.643 31.7555L576.714 34.4018C575.952 36.7859 574.405 38.7408 572.071 40.2666C569.738 41.7447 567 42.4837 563.857 42.4837C561.048 42.4837 558.5 41.84 556.214 40.5527C553.929 39.2176 552.119 37.4057 550.786 35.117C549.5 32.8283 548.857 30.2774 548.857 27.4642Z" fill="#F0EEE8"/>
</svg>
